<?xml version="1.0" encoding="utf-8"?>
<!-- Generator: Adobe Illustrator 19.2.1, SVG Export Plug-In . SVG Version: 6.00 Build 0)  -->
<svg version="1.1" id="Layer_1" xmlns="http://www.w3.org/2000/svg" xmlns:xlink="http://www.w3.org/1999/xlink" x="0px" y="0px"
	 viewBox="0 0 5990.2 2912" style="enable-background:new 0 0 5990.2 2912;" xml:space="preserve">
<style type="text/css">
	.st0{fill:#80C343;}
</style>
<g>
	<g>
		<path class="st0" d="M5012.2,1014c-13.9-20.3-30.5-34.1-99.4-39.4c-18.2-1.4-77.9-3.3-178.5-3.3c-264.3,0-443.8,80.2-535.7,238.5
			c25.3-159.2-129.9-239-466.1-239c-394.6,0-640.9,159-739.1,476.7c-36.5,118.2-40.2,215-11.4,290.7l-93.2,6.3
			c-72.8,5.5-168.6,10.5-227.2,10.5c-144.4,0-234-24.3-268.6-72.7c-31.1-43.5-28-124.2,8.3-242c60.1-195.1,209.4-282.9,447.9-282.9
			c123.6-0.2,243.9,13,243.9,13c16.6-1.1,24-18.3,22.1-32.6l-2.4-18.6l-8.5-65.6c-5.5-43-37.6-68.6-96.2-76.5
			c-53.5-3.6-93.4-6.1-152.1-6.1c-1.1,0-2.2,0.1-3.2,0.1c-311.7,0.7-528.8,103.1-651.5,307c45-204.7-99-307.1-432.9-307.1
			c-185.5,0-318.5,5.3-399.2,15.8c-61.9,7.7-99.6,33.3-113.2,76.8l-26.5,84.3c-4.8,15.4,2.6,23.1,22.4,23.1l0.6-0.1
			c14.7-1.9,71.1-7.4,167.6-15.2c127.7-10.2,222.2-15.4,284.5-15.4c183.7,0,261,46,232.3,137.9c-6.2,20.3-20.3,33-41.6,37.9
			c-173.8,28.8-311.7,49.6-413.7,62.1c-287.1,36.6-452.9,125.9-497.6,268.4c-61.2,195.7,92.3,293.6,460.4,293.6
			c183.6,0,337.8-10.7,462.4-31.6c71.8-12.1,108.2-30.4,122.6-76.7l68.6-218.1c-7.2,218,145.7,327.8,459.1,327.8
			c135.6,0,264.2-4.5,325-15c64.3-11.2,94.9-25.1,109.2-73.6l13.9-68.7c66.8,104,213.2,156,439.3,156c238.4,0,377.6-6.6,417.2-19.9
			c33.1-10.6,53.8-27.7,61-51.6c1.5-4.2,2.1-8.8,2.9-13.7l28.6-92.6c5-16.1-2.4-23.8-22-23.1l-152.6,7.3
			c-101.8,5.7-181.6,8.5-239.2,8.5c-108.3,0-182.7-7.4-223.3-22.2c-60.3-23.2-89-69.3-86.3-139l483.4-61.9
			c216.7-27.7,361.6-94.4,435-200.2L3985,1902.1c-3.1,10.7-2,19.5,3.6,25.8c6.1,7.1,16.5,10.6,31.9,10.6h200.2
			c34.9,0,47.4-18.1,51.7-33.2l176.8-615.7c23.3-81,97.8-120.5,227.8-120.5c117.4,0,205.9,1.1,262.4,3.2c1.5,0.1,2.9,0.1,4.4,0.1
			c11,0,31-3.9,40.9-30.8l31-84.5C5021.8,1040.7,5020.5,1026.1,5012.2,1014 M1787.2,1754.8c-62.6,9.7-152.2,14.6-269.4,14.6
			c-203.4,0-292.3-41.1-266.5-123.1c18.5-58.8,71.7-94.2,160.2-106.2l462.6-62.1L1787.2,1754.8z M3925.1,1255.9
			c-19.5,63.1-110,106.4-271.3,129.6l-385.3,54.7l9.8-31.6c31.9-103.8,77.4-174.6,135.9-212.1c58.5-37.4,153.9-56.4,286.1-56.4
			C3874,1140.1,3948.9,1178.8,3925.1,1255.9"/>
	</g>
</g>
</svg>
